<svg xmlns="http://www.w3.org/2000/svg" version="1.1" viewBox="0 0 30 30"><path d="M14.994 3.87a5.84 5.84 0 0 0-5.59 5.6H3.285a.56.56 0 0 0-.57.56v15.53a.56.56 0 0 0 .57.57h23.43a.57.57 0 0 0 .57-.57V10.03a.57.57 0 0 0-.57-.56h-6.14a5.85 5.85 0 0 0-5.58-5.6zm0 1.14a4.68 4.68 0 0 1 4.41 4.46h-8.82a4.68 4.68 0 0 1 4.41-4.46zm-9.44 5.59h19.302l-8.452 5.62v-.36a.57.57 0 0 0-.609-.57h-2.13a.57.57 0 0 0-.56.57v.24zm-1.708.16l9.26 6.76v2.58a.57.57 0 0 0 .558.57h2.131a.57.57 0 0 0 .61-.57v-2.519l9.74-6.48V25l-22.3.01zm10.388 5.67h1v3.12h-1z"/></svg>
