<svg xmlns="http://www.w3.org/2000/svg" version="1.1" viewBox="0 0 30 30"><path d="M18.628 26.6H4.106a.466.466 0 0 1-.476-.467v-3.407a.475.475 0 0 1 .476-.476h14.522a.475.475 0 0 1 .466.476v3.387a.466.466 0 0 1-.466.486zm-14.076-.942h13.6v-2.457h-13.6zm16.117-14.037a.475.475 0 0 1-.476-.466V9.333a.495.495 0 0 1 .99 0v1.822a.475.475 0 0 1-.514.466zM22.254 26.6h-3.626a.466.466 0 0 1-.476-.466v-8.35a2.288 2.288 0 0 1 4.577 0v8.33a.466.466 0 0 1-.475.486zm-3.16-.99h2.694v-7.827a1.347 1.347 0 1 0-2.694 0zm-14.988.99H.47a.466.466 0 0 1-.466-.466v-8.35a2.288 2.288 0 1 1 4.567 0v8.33a.466.466 0 0 1-.466.486zm-3.16-.99H3.63v-7.827a1.347 1.347 0 1 0-2.684 0zm28.569-11.947H18.618a.466.466 0 0 1-.475-.466V4.32a.931.931 0 0 1 .93-.92h9.996a.921.921 0 0 1 .92.92v8.916a.466.466 0 0 1-.474.426zm-10.421-.94h9.905v-8.4h-9.905zm9.975 13.877h-9.985a.931.931 0 0 1-.932-.922v-12.44a.466.466 0 0 1 .476-.477h10.896a.466.466 0 0 1 .476.476v12.481a.921.921 0 0 1-.931.882zm-9.975-.99h9.905V13.661h-9.905z"/></svg>