<svg xmlns="http://www.w3.org/2000/svg" version="1.1" viewBox="0 0 30 30"><path d="M21.597 20.055H7.291a.458.458 0 1 1 0-.906h14.306a.458.458 0 1 1 0 .906zm-11.349-6.714a.448.448 0 0 1-.449-.448v-2.785a.458.458 0 0 1 .906 0v2.785a.448.448 0 0 1-.457.448zm-5.78 9.356a3.004 3.004 0 1 1 2.995-2.995 3.004 3.004 0 0 1-2.995 2.995zm0-5.083a2.089 2.089 0 1 0 2.09 2.088 2.089 2.089 0 0 0-2.09-2.088zm19.914 5.083a3.004 3.004 0 1 1 3.005-2.995 3.004 3.004 0 0 1-3.005 2.995zm0-5.083a2.089 2.089 0 1 0 2.09 2.088 2.098 2.098 0 0 0-2.09-2.088zm-4.377-4.045H4.745a.448.448 0 0 1-.41-.257.458.458 0 0 1 0-.467 8.765 8.765 0 0 1 7.067-3.3c3.53-.095 7.258 1.287 8.898 3.28a.458.458 0 0 1-.353.745zm-14.26-.953H18.88a12.15 12.15 0 0 0-7.4-2.194 8.03 8.03 0 0 0-5.733 2.242zM1.921 20.37a.439.439 0 0 1-.238-.076 4.502 4.502 0 0 1-1.66-3.968 4.092 4.092 0 0 1 1.65-3.405C2.856 9.89 5.631 7.943 9.503 7.43 14.75 6.742 20.787 8.907 23.4 12.4c4.77.504 6.6 3.947 6.6 6.036 0 1.078-1.154 1.717-3.07 1.717a.458.458 0 1 1 .018-.859c.801 0 2.155-.17 2.155-.81 0-1.793-1.62-4.77-5.97-5.15a.467.467 0 0 1-.334-.19c-2.356-3.34-8.135-5.428-13.162-4.77-3.586.477-6.123 2.27-7.143 5.055a.43.43 0 0 1-.21.238 3.1 3.1 0 0 0-1.326 2.737 3.682 3.682 0 0 0 1.192 3.13.458.458 0 0 1 .143.63.477.477 0 0 1-.372.21z"/></svg>