<svg xmlns="http://www.w3.org/2000/svg" version="1.1" viewBox="0 0 30 45"><path d="M14.94 3.754a.39.39 0 0 1-.39-.39v-1.75a.39.39 0 1 1 .78 0v1.75a.39.39 0 0 1-.39.39zm7.43 40.02h-3.15a.41.41 0 0 1-.3-.14.41.41 0 0 1-.08-.32 4.25 4.25 0 0 0 .06-.71 3.92 3.92 0 0 0-7.84 0 4.25 4.25 0 0 0 .06.71.41.41 0 0 1-.08.32.41.41 0 0 1-.3.14H7.59a.4.4 0 0 1-.33-.18.4.4 0 0 1 0-.37l3.08-7.37a.38.38 0 0 1 .36-.24h8.62a.38.38 0 0 1 .36.24l3.06 7.37a.41.41 0 0 1 0 .37.39.39 0 0 1-.37.18zm-2.7-.79h2.12l-2.76-6.56h-8.09l-2.76 6.59h2.12v-.38a4.7 4.7 0 1 1 9.4 0c-.02.1-.02.23-.03.35zm-2.73-6.56h-3.88a.41.41 0 0 1-.31-.14.4.4 0 0 1-.07-.33l1.15-5.53a.39.39 0 0 1 .38-.31h1.54a.39.39 0 0 1 .38.31l1.16 5.46a.44.44 0 0 1-.08.33.41.41 0 0 1-.27.21zm-3.36-.78h2.88l-1-4.67h-.9zm2.46-30.83h-2.1a.39.39 0 0 1-.41-.39 1.45 1.45 0 0 1 2.9 0 .39.39 0 0 1-.39.39zm-1.6-.78h1.08a.66.66 0 0 0-1.08 0zm2.5 23.09h-4a.4.4 0 0 1-.29-.12.38.38 0 0 1-.1-.29l1.44-22.29a.4.4 0 0 1 .39-.36h1.2a.4.4 0 0 1 .36.36l1.38 22.32a.38.38 0 0 1-.1.29.4.4 0 0 1-.28.09zm-3.55-.78h3.14l-1.32-21.53h-.46zm5.9 10.08h-8.62a.37.37 0 0 1-.31-.15.39.39 0 0 1-.07-.33l1.79-7.43a.39.39 0 0 1 .38-.3h5a.39.39 0 0 1 .38.3l1.79 7.43a.36.36 0 0 1-.07.33.37.37 0 0 1-.27.15zm-8.12-.78h7.63l-1.61-6.65h-4.42zm6.82-6.68h-6.05a.38.38 0 0 1-.39-.39v-1.84a.39.39 0 0 1 .39-.39h6a.4.4 0 0 1 .4.39v1.84a.39.39 0 0 1-.35.39zm-5.63-.78h5.24v-1.06h-5.24z"/></svg>
