<svg xmlns="http://www.w3.org/2000/svg" version="1.1" viewBox="0 0 30 30"><path d="M22.235 26.855a7.13 7.13 0 0 1-4.18-1.21.53.53 0 0 1-.21-.42v-3.72c0-1.87 2-3.4 4.39-3.4 2.39 0 4.38 1.56 4.38 3.4v3.69a.52.52 0 0 1-.2.42 7.17 7.17 0 0 1-4.18 1.24zm-3.46-1.91a7.1 7.1 0 0 0 6.92 0v-3.44c0-1.29-1.59-2.38-3.46-2.38-1.87 0-3.46 1.12-3.46 2.38zm7.38.28zm-3.92-6.38a3.38 3.38 0 1 1 3.37-3.34 3.38 3.38 0 0 1-3.37 3.34zm0-5.83a2.46 2.46 0 1 0 2.45 2.49 2.45 2.45 0 0 0-2.45-2.49zm-12.82 13.85h-.15a8.33 8.33 0 0 1-5.75-2.29.51.51 0 0 1-.13-.33v-7a6 6 0 0 1 11.91 0v7a.47.47 0 0 1-.14.33 8.06 8.06 0 0 1-5.74 2.29zm-5.08-2.81a7.64 7.64 0 0 0 10.06 0v-6.8a5.03 5.03 0 1 0-10.06 0zm10.52.19zm-5.65-12.01a4.55 4.55 0 1 1 4.55-4.55 4.55 4.55 0 0 1-4.55 4.55zm0-8.16a3.62 3.62 0 1 0 3.62 3.61 3.61 3.61 0 0 0-3.62-3.61z"/></svg>