<svg xmlns="http://www.w3.org/2000/svg" viewBox="0 0 48 45">
<path xmlns="http://www.w3.org/2000/svg" fill="#071F32" fill-opacity="0.04" d="M47.846 26.112c-.17-.003-.307.158-.503.584-4.382 9.514-12.457 14.073-21.011 14.136-17.033.124-21.046-13.772-21.153-14.15l8.693 1.612c.045.094 3.37 7.676 12.152 7.676 9.29 0 15.755-9.189 15.755-18.69 0-8.55-3.637-13.442-8.917-17.28L9.2 10.86a.246.246 0 0 0 .049.464C22.356 14.334 24.58 23.67 23.96 28.968c-.093.791.431.659.934-.825 1.786-5.263.502-12.925-6.603-17.238 0 0 13.151-6.525 13.153-6.523 1.58 1.213 6.755 4.672 6.755 12.898 0 8.23-4.793 15.707-12.175 15.707-7.33 0-9.884-7.425-9.923-7.528L.463 22.08a.369.369 0 0 0-.46.393C1.361 34.303 10.912 44 24.753 44c11.485 0 19.282-6.262 22.603-15.11.765-2.039.732-2.775.489-2.778"/>
</svg>
