<svg xmlns="http://www.w3.org/2000/svg" version="1.1" viewBox="0 0 30 30"><path d="M14.915 10.57a.48.48 0 0 1-.48-.47v-.21a.49.49 0 0 1 .48-.48.48.48 0 0 1 .47.48v.21a.47.47 0 0 1-.47.47zm-2.37.58a.47.47 0 0 1-.38-.19l-1.42-1.89a.48.48 0 0 1 .09-.67.49.49 0 0 1 .67.1l1 1.36 2.96-4.42a.47.47 0 0 1 .66-.13.48.48 0 0 1 .13.66l-3.32 5a.44.44 0 0 1-.38.21zm7.78 4.5H9.675a.47.47 0 0 1-.48-.47.48.48 0 0 1 .48-.48h10.65a.48.48 0 0 1 .48.48.47.47 0 0 1-.48.47zm-10.62 2.84h10.66m0 .48H9.705a.48.48 0 0 1-.48-.48.47.47 0 0 1 .48-.47h10.66a.47.47 0 0 1 .47.47.48.48 0 0 1-.47.48zm-10.63 2.84h10.66m0 .43H9.735a.47.47 0 1 1 0-.94h10.66a.47.47 0 0 1 0 .94zm-5.48-9.67h-5.21a.47.47 0 0 1-.48-.47V6.89a.48.48 0 0 1 .48-.48h2.6a.49.49 0 0 1 .48.48.48.48 0 0 1-.48.47h-2.13v4.26h4.26V10.1a.49.49 0 0 1 .48-.48.48.48 0 0 1 .47.48v2a.47.47 0 0 1-.47.47zm8.76 13.98H6.325a.47.47 0 0 1-.47-.47V3.92a.47.47 0 0 1 .47-.47h17.35a.47.47 0 0 1 .47.47v22.16a.47.47 0 0 1-.47.47zm-16.88-1h16.41V4.39H6.795zm2.88-10.37h10.65"/></svg>