<svg xmlns="http://www.w3.org/2000/svg" version="1.1" viewBox="0 0 30 30"><path d="M8.115 21a4.2 4.2 0 0 1-3-1.17.47.47 0 0 1-.14-.33v-3.37a3.11 3.11 0 0 1 6.22 0v3.37a.46.46 0 0 1-.13.33A4.21 4.21 0 0 1 8.115 21zm-2.17-1.67a3.42 3.42 0 0 0 4.35 0v-3.2a2.18 2.18 0 0 0-4.35 0zm4.82.2zm13.9-8.71h-9.79a.47.47 0 1 1 0-.93h9.75a.47.47 0 1 1 0 .93zm0 3.11h-9.79a.46.46 0 0 1-.47-.46.47.47 0 0 1 .47-.47h9.75a.47.47 0 0 1 .47.47.46.46 0 0 1-.43.46zm0 3.12h-9.79a.47.47 0 0 1 0-.94h9.75a.47.47 0 0 1 0 .94zm0 3.11h-9.79a.47.47 0 1 1 0-.93h9.75a.47.47 0 1 1 0 .93zm-16.62-6.2a2.43 2.43 0 1 1 2.43-2.43 2.43 2.43 0 0 1-2.43 2.43zm0-3.93a1.5 1.5 0 1 0 1.5 1.5 1.5 1.5 0 0 0-1.5-1.5zm18.08 14.07H3.875a3 3 0 0 1-3-3V8.9a3 3 0 0 1 3-3h22.25a3 3 0 0 1 3 3v12.25a3 3 0 0 1-3 2.95zM3.875 6.88a2 2 0 0 0-2 2v12.27a2 2 0 0 0 2 2h22.25a2 2 0 0 0 2-2V8.9a2 2 0 0 0-2-2z"/></svg>