                        <svg xmlns="http://www.w3.org/2000/svg" width="9.35" height="14.19" viewBox="0 0 9.35 14.19">
                            <g id="noun_Maps_point_1903779" data-name="noun_Maps point_1903779"
                                transform="translate(79.897 -117.7)">
                                <g id="Groupe_8215" data-name="Groupe 8215" transform="translate(-79.897 117.7)">
                                    <path id="Tracé_56944" data-name="Tracé 56944"
                                        d="M33.054,21.89H33.1a.888.888,0,0,0,.724-.414c.889-1.551,3.93-7.012,3.93-9.267A4.4,4.4,0,0,0,33.24,7.7H32.91a4.4,4.4,0,0,0-4.51,4.51c0,2.255,3.041,7.716,3.93,9.267A.834.834,0,0,0,33.054,21.89Zm-2.151-9.6a2.172,2.172,0,1,1,2.172,2.172A2.172,2.172,0,0,1,30.9,12.292Z"
                                        transform="translate(-28.4 -7.7)" fill="#354bcf"></path>
                                </g>
                            </g>
                        </svg>