<svg width="167" height="45" viewBox="0 0 167 45" fill="none" xmlns="http://www.w3.org/2000/svg">
<title class="logo-horizontal">Ville de Paris</title>
<g clip-path="url(#clip0_1_2)">
<path d="M71.11 18.01C71.11 16.032 69.713 14.519 67.812 14.519H63.738V21.503H67.812C69.712 21.503 71.11 19.988 71.11 18.01ZM77.318 18.01C77.318 23.171 73.166 27.323 67.812 27.323H63.738V35.859H57.53V8.699H67.812C73.166 8.699 77.318 12.849 77.318 18.01ZM134.185 35.859V8.699H140.394V35.859H134.185ZM113.65 21.902H118.306C120.014 21.902 121.41 20.302 121.41 18.21C121.41 16.118 120.014 14.519 118.306 14.519H113.65V21.902ZM113.65 27.335V35.859H107.442V8.699H118.306C119.53 8.6961 120.742 8.93498 121.873 9.40192C123.004 9.86887 124.032 10.5547 124.897 11.42C125.762 12.2852 126.448 13.3129 126.915 14.444C127.382 15.5751 127.621 16.7873 127.618 18.011C127.618 21.347 125.689 24.611 122.691 26.021L128.394 35.859H121.721L116.829 27.335H113.65ZM87.187 25.861C88.213 26.124 89.289 26.263 90.397 26.263C91.507 26.263 92.583 26.124 93.609 25.861L90.398 15.8L87.187 25.861ZM85.519 31.085L83.994 35.859H77.204L86.44 8.699H94.356L103.588 35.859H96.798L95.277 31.085C93.717 31.485 92.082 31.696 90.397 31.696C88.713 31.696 87.078 31.485 85.519 31.085ZM156.157 14.208C154.487 14.208 153.247 14.977 153.247 16.265C153.247 17.993 154.936 18.713 159.157 19.962C164.585 21.568 166.865 23.877 166.865 28.06C166.865 33.35 162.582 36.402 156.778 36.402C149.386 36.402 146.318 30.819 145.913 29.689L151.196 26.92C152.375 29.013 154.329 30.354 156.778 30.354C158.971 30.354 160.658 29.746 160.658 28.138C160.658 25.828 156.926 25.358 155.032 24.684C153.137 24.011 147.039 22.834 147.039 16.42C147.039 11.077 151.563 8.155 156.157 8.155C162.693 8.155 165.231 12.584 166.089 14.285L160.909 17.013C159.972 15.661 158.863 14.208 156.157 14.208ZM47.75 26.281C47.993 26.284 48.026 27.025 47.263 29.077C43.948 37.983 36.166 44.285 24.705 44.285C10.891 44.285 1.358 34.525 0.000999855 22.617C-0.00505653 22.5577 0.00329968 22.4978 0.0253575 22.4425C0.0474153 22.3871 0.0825218 22.3379 0.12769 22.299C0.172858 22.2601 0.226751 22.2327 0.284783 22.2191C0.342815 22.2056 0.403269 22.2062 0.461 22.221L16.068 25.624C16.108 25.728 18.656 33.201 25.972 33.201C33.339 33.201 38.122 25.675 38.122 17.391C38.122 9.113 32.958 5.631 31.381 4.41C27.0048 6.59732 22.6292 8.78566 18.254 10.975C25.345 15.317 26.626 23.028 24.844 28.325C24.342 29.819 23.819 29.952 23.912 29.155C24.53 23.825 22.312 14.426 9.229 11.397C9.17882 11.3853 9.13354 11.3582 9.09945 11.3196C9.06535 11.281 9.04413 11.2327 9.03874 11.1814C9.03336 11.1302 9.04406 11.0785 9.06938 11.0337C9.09469 10.9888 9.13336 10.9529 9.18 10.931L32.797 0C38.067 3.863 41.697 8.787 41.697 17.392C41.697 26.955 35.244 36.203 25.973 36.203C17.209 36.203 13.889 28.572 13.845 28.478L5.17 26.856C5.276 27.236 9.282 41.222 26.28 41.096C34.819 41.033 42.878 36.446 47.25 26.869C47.446 26.441 47.584 26.279 47.752 26.281H47.75Z" fill="black"/>
</g>
<defs>
<clipPath id="clip0_1_2">
<rect width="167" height="45" fill="white"/>
</clipPath>
</defs>
</svg>
