<svg xmlns="http://www.w3.org/2000/svg" version="1.1" viewBox="0 0 30 30"><path d="M15 23.635a1.14 1.14 0 1 0 1.14 1.14 1.14 1.14 0 0 0-1.14-1.14zm5.56-19.13H9.44a.47.47 0 0 0-.47.47v16.89a.47.47 0 0 0 .47.47h11.12a.47.47 0 0 0 .47-.47V4.975a.47.47 0 0 0-.47-.47zM9.91 21.395V5.445h10.18v16zm11.18-19.53H8.91a2.59 2.59 0 0 0-2.58 2.58v21.12a2.59 2.59 0 0 0 2.58 2.57h12.18a2.59 2.59 0 0 0 2.58-2.58V4.445a2.59 2.59 0 0 0-2.58-2.58zm1.64 2.58v21.12a1.65 1.65 0 0 1-1.64 1.64H8.91a1.65 1.65 0 0 1-1.64-1.64V4.445a1.65 1.65 0 0 1 1.64-1.64h12.18a1.65 1.65 0 0 1 1.64 1.64z"/></svg>