<svg xmlns="http://www.w3.org/2000/svg" viewBox="0 0 30 30"><path d="M2.82 18.38l-.55-1-1.27-.51v-1.54l.33-1.09 1-.61v-.57l1.67-1.06 1.8.78 1.56 2.8-.53.29-.27 1.13-2.37 1.15zm-1.32-1.85l1.13.47.45.82 1-.16.74-.37c-.36.09-.79.17-1.21.25l-.1-.49c.35-.06.7-.13 1-.21l-1.27-1.08.76-1.57.44.22-.61 1.23 1 .85.74-.5 1.1-.59-1.2-2.2-1.4-.62-1.27.76v1.66h-.5v-.78l-.54.34-.26.88zm3.5.47v.17l1.14-.57.11-.42-.38.21zM13.56 24.23l-2.7-4.87-3-1.19-3.11 1.54v1.21l-1.86 1-.44 2.08v2.5l2.2.94 1 1.68 2.35-.32 4-2.09.57-2zm-2.06 2.06l-3.64 1.92-1.86.27-.95-1.48-2-.86v-2l.37-1.76 1.34-.7v1.7h.6v-3.18l2.51-1.26 2.58 1 2.29 4.06-2.17 1.09-1.22.91-1.07-2 1.19-3.13-1.9 1.71-3.06 2.36 2.19 1.22.3-.52-1.41-.78 2.41-1.86-.38 1 1.25 2.31a9.1 9.1 0 0 1-2 .47l.06.6a10.91 10.91 0 0 0 2.58-.62l-.05-.13 1.47-1.08 1-.48zM19 .78a17.77 17.77 0 0 0-2.55-.18c-3.2 0-6.4.8-6.4 2.3a1 1 0 0 0 .07.34.48.48 0 0 0-.07.26c1 2.4.5 5.8 0 8.1a33.05 33.05 0 0 0-.52 7.24l.74.29a30.22 30.22 0 0 1 .48-7.33 18 18 0 0 0 .25-7.63 6.05 6.05 0 0 0 1.08.45c.84 2.4.35 5.72 0 8a31.37 31.37 0 0 0-.41 8.17l1.92 3.46a12 12 0 0 0 3 .37 12.71 12.71 0 0 0 4-.81 4.65 4.65 0 0 0 1.69-1.08c1.7-2.4 1-8.6.5-11a17.41 17.41 0 0 1-.33-7c5.25-.91 2.94-3.46-3.45-3.95zm-4.64 22.92a8.46 8.46 0 0 1-1.25-.31.54.54 0 0 0-.06-.29c-1.4-1.8-1-7.2-.4-10.4a19 19 0 0 0 .18-7.88 12.62 12.62 0 0 0 1.33.24 37.26 37.26 0 0 1 0 8c-.16 2.82-.48 8.34.2 10.64zm1.69.18c-.33 0-.66 0-1-.07a.45.45 0 0 0 0-.11c-.7-1.8-.5-7.3-.2-10.5a29.87 29.87 0 0 0 0-8.07 11.12 11.12 0 0 0 1.16.06zm.4-19.38a14.38 14.38 0 0 1-3.9-.5.63.63 0 0 0-.26 0c-1-.31-1.54-.71-1.54-1.06 0-.7 2.2-1.6 5.7-1.6a15.45 15.45 0 0 1 3.42.34 8.31 8.31 0 0 1 2.2 1.05.46.46 0 0 1 .08.21c0 .66-2.15 1.56-5.7 1.56zm1.4 19.3c-.35 0-.72.06-1.09.07v-18.67c.43 0 .86 0 1.28-.07a29.42 29.42 0 0 0 0 8.17c.31 3.2.51 8.6-.19 10.5zm2.1-.6a.58.58 0 0 0-.06.17 8 8 0 0 1-1.22.33c.65-2.44.36-7.85.08-10.5a36.92 36.92 0 0 1 0-8.14 12.34 12.34 0 0 0 1.49-.28c-.73 2.47-.27 5.74.11 8 .5 3.02.8 8.52-.35 10.42zm1.7-1a2.57 2.57 0 0 1-.63.59c1-2.83.38-8 0-10-.39-2.26-.78-5.56 0-8l.65-.07a19.54 19.54 0 0 0 .39 7c.59 3.08.99 8.58-.41 10.48z"/></svg>
