<svg width="161" height="312" viewBox="0 0 161 312" fill="none" xmlns="http://www.w3.org/2000/svg">
<path d="M45.017 111.704C49.3338 114.562 53.9782 116.844 58.8303 118.513C47.4279 121.711 36.798 127.417 27.7814 135.318C13.2314 148.068 3.88664 165.652 1.51146 184.759L1.5 184.851V184.944V275.206V275.221L1.50031 275.237C1.53964 277.173 2.27838 279.028 3.57912 280.467L3.61976 280.512L3.6639 280.554C24.1348 299.817 51.2995 310.535 79.5263 310.49H81.4644C95.4568 310.681 109.35 308.134 122.348 302.996C135.349 297.857 147.2 290.226 157.221 280.54L157.226 280.534C158.661 279.133 159.48 277.223 159.5 275.221L159.5 275.214V275.206V184.944V184.851L159.489 184.759C157.113 165.652 147.769 148.068 133.219 135.318C123.673 126.954 112.318 121.048 100.153 117.976C100.763 117.748 101.37 117.51 101.973 117.263C109.338 114.24 116.032 109.809 121.67 104.223C127.309 98.6359 131.782 92.0028 134.834 84.7015C137.887 77.4003 139.458 69.5743 139.458 61.6707C139.458 49.767 135.895 38.1317 129.222 28.2363C122.549 18.3411 113.066 10.6309 101.973 6.07838C90.8807 1.52596 78.6756 0.335046 66.9008 2.65568C55.1259 4.97632 44.308 10.7048 35.816 19.1187C27.3239 27.5328 21.539 38.2547 19.1953 49.9294C16.8515 61.6041 18.0545 73.7051 22.6517 84.7015C27.2487 95.6979 35.0327 105.094 45.017 111.704ZM77.1075 121.82C77.6521 121.834 78.1973 121.841 78.7431 121.841C79.9664 121.841 81.188 121.805 82.4061 121.732C90.2688 121.924 98.0328 123.552 105.307 126.537C113.068 129.723 120.119 134.391 126.058 140.275C131.997 146.159 136.707 153.144 139.92 160.83C143.133 168.516 144.787 176.754 144.787 185.072V272.068C127.013 287.256 104.316 295.62 80.8254 295.62C57.3351 295.62 34.6372 287.256 16.8636 272.068V185.072C16.8636 176.754 18.5172 168.516 21.7305 160.83C24.9437 153.144 29.6539 146.159 35.5926 140.275C41.5314 134.391 48.5825 129.723 56.3437 126.537C62.958 123.823 69.9773 122.231 77.1075 121.82ZM78.7431 16.621L78.7472 16.621C84.7324 16.6046 90.6618 17.7584 96.1954 20.0162C101.729 22.2739 106.758 25.5909 110.994 29.7764C115.23 33.9619 118.59 38.9337 120.883 44.4066C123.175 49.8794 124.355 55.7461 124.355 61.6707L124.355 61.6749C124.38 70.6125 121.728 79.3577 116.733 86.8033C111.738 94.2491 104.624 100.061 96.2899 103.501C87.956 106.942 78.7784 107.855 69.9196 106.125C61.0609 104.395 52.9213 100.099 46.5307 93.785C40.1402 87.4708 35.7858 79.4215 34.0167 70.6569C32.2477 61.8925 33.1429 52.8049 36.5896 44.544C40.0364 36.283 45.8805 29.2188 53.3842 24.2473C60.8881 19.2757 69.7135 16.621 78.7431 16.621Z" fill="#354BCF" stroke="#354BCF" stroke-width="3"/>
</svg>
