<svg width="14" height="25" viewBox="0 0 14 25" fill="none" xmlns="http://www.w3.org/2000/svg">
<path d="M6.68772 24.6097H6.52136C4.14834 24.6133 1.86483 23.7629 0.14418 22.2348C0.0538793 22.1405 0.00272348 22.0191 0 21.8926V14.6331C0.198524 13.1259 0.979611 11.7387 2.19611 10.7326C3.41261 9.72663 4.98055 9.17131 6.60454 9.17131C8.22854 9.17131 9.79647 9.72663 11.013 10.7326C12.2295 11.7387 13.0106 13.1259 13.2091 14.6331V21.8926C13.2077 22.0214 13.1519 22.1444 13.0538 22.2348C12.2119 23.0028 11.2163 23.6079 10.1239 24.0155C9.03144 24.423 7.86376 24.6249 6.68772 24.6097ZM1.05362 21.6955C2.5981 22.9588 4.58033 23.6551 6.63227 23.6551C8.68421 23.6551 10.6664 22.9588 12.2109 21.6955V14.6435C12.2109 13.9584 12.0666 13.2801 11.7863 12.6472C11.5059 12.0143 11.095 11.4392 10.577 10.9549C10.0589 10.4705 9.44396 10.0862 8.76713 9.82406C8.09029 9.56191 7.36487 9.42698 6.63227 9.42698C5.89967 9.42698 5.17425 9.56191 4.49741 9.82406C3.82058 10.0862 3.2056 10.4705 2.68757 10.9549C2.16954 11.4392 1.75862 12.0143 1.47827 12.6472C1.19792 13.2801 1.05362 13.9584 1.05362 14.6435V21.6955ZM6.45482 9.43736C5.45676 9.43736 4.48111 9.16061 3.65125 8.64211C2.82139 8.12362 2.17459 7.38666 1.79265 6.52444C1.41071 5.66221 1.31078 4.71344 1.50549 3.79811C1.7002 2.88278 2.18081 2.04199 2.88655 1.38207C3.59229 0.722152 4.49145 0.272741 5.47034 0.0906702C6.44922 -0.091401 7.46386 0.00204453 8.38595 0.35919C9.30804 0.716335 10.0962 1.32114 10.6507 2.09712C11.2052 2.87311 11.5011 3.78541 11.5011 4.71868C11.5011 5.33834 11.3706 5.95194 11.117 6.52444C10.8634 7.09693 10.4917 7.61712 10.0231 8.05529C9.55449 8.49346 8.99819 8.84103 8.38595 9.07817C7.77371 9.3153 7.11751 9.43736 6.45482 9.43736ZM6.45482 0.97485C5.66028 0.974852 4.88361 1.1953 4.22314 1.60827C3.56266 2.02125 3.04808 2.60819 2.74453 3.29479C2.44098 3.98138 2.36213 4.73676 2.51794 5.46528C2.67376 6.19381 3.05724 6.86272 3.61983 7.38734C4.18243 7.91196 4.89885 8.26869 5.67838 8.41237C6.45791 8.55606 7.26551 8.48023 7.99894 8.19449C8.73236 7.90875 9.35862 7.42596 9.79844 6.80722C10.2383 6.18848 10.4719 5.46163 10.4697 4.71868C10.4697 4.22616 10.3657 3.73848 10.1638 3.28358C9.96194 2.82868 9.66604 2.4155 9.29308 2.06772C8.92012 1.71994 8.47744 1.44438 7.9904 1.25685C7.50336 1.06932 6.98153 0.973485 6.45482 0.97485Z" fill="black"/>
</svg>
